{"accessors":[{"bufferView":1,"componentType":5126,"count":128,"max":[1.2112200260162354,1.2112200260162354,3.0274200439453125],"min":[-1.2112200260162354,-1.2112200260162354,0],"type":"VEC3"},{"bufferView":1,"byteOffset":1536,"componentType":5126,"count":128,"max":[0.9083364605903625,0.9083364605903625,0.9719298481941223],"min":[-0.9083364605903625,-0.9083364605903625,-1],"type":"VEC3"},{"bufferView":0,"componentType":5125,"count":756,"type":"SCALAR"}],"asset":{"extras":{"author":"Robert (https://sketchfab.com/imaginaryrobbie)","license":"CC-BY-4.0 (http://creativecommons.org/licenses/by/4.0/)","source":"https://sketchfab.com/3d-models/shot-glass-b5c053f7dbcb42d69e0475f3a0d4c257","title":"Shot Glass"},"generator":"Sketchfab-12.68.0","version":"2.0"},"bufferViews":[{"buffer":0,"byteLength":3024,"name":"floatBufferViews","target":34963},{"buffer":0,"byteLength":3072,"byteOffset":3024,"byteStride":12,"name":"floatBufferViews","target":34962}],"buffers":[{"byteLength":6096,"uri":"data:application/octet-stream;base64,"}],"materials":[{"alphaMode":"BLEND","doubleSided":true,"name":"Glass_2","pbrMetallicRoughness":{"baseColorFactor":[1,1,1,0.4616996951219512],"roughnessFactor":0.12366615853658537}}],"meshes":[{"name":"Cylinder.001_0","primitives":[{"attributes":{"NORMAL":1,"POSITION":0},"indices":2,"material":0,"mode":4}]}],"nodes":[{"children":[1],"matrix":[1,0,0,0,0,2.220446049250313e-16,-1,0,0,1,2.220446049250313e-16,0,0,0,0,1],"name":"Sketchfab_model"},{"children":[2,4],"name":"Root"},{"children":[3],"matrix":[-0.29086000000000006,0.9551700000000001,-0.05519000000000001,0,-0.7711,-0.19988000000000003,0.6045200000000001,0,0.5663900000000001,0.21839000000000003,0.7946700000000001,0,2.15918,2.3546699999999996,5.903860000000001,1],"name":"Lamp"},{"name":"Lamp"},{"children":[5],"name":"Cylinder.001"},{"mesh":0,"name":"Cylinder.001_0"}],"scene":0,"scenes":[{"name":"Sketchfab_Scene","nodes":[0]}]}